<svg width="97" height="94" viewBox="0 0 97 94" fill="none" xmlns="http://www.w3.org/2000/svg">
<path d="M84.1928 43.2947C84.1549 42.8399 84.0791 42.366 84.0222 41.9112C84.0033 41.7596 83.9843 41.6079 83.9464 41.4563C83.9085 41.1531 83.8517 40.8498 83.7948 40.5466C83.7759 40.395 83.738 40.2434 83.719 40.0917C80.7814 24.8538 68.3863 12.9516 52.902 10.791C52.4472 10.7341 51.9923 10.6773 51.5375 10.6204C50.0402 10.4688 48.524 10.4119 46.9699 10.4498C46.8183 10.4498 46.6666 10.4498 46.515 10.4498C46.1928 10.4498 45.8896 10.4688 45.5674 10.4877C45.4347 10.4877 45.2831 10.4877 45.1504 10.5067C44.9988 10.5067 44.8472 10.5256 44.6956 10.5446C44.5439 10.5636 44.3923 10.5636 44.2407 10.5825C26.918 12.2503 13.0447 26.1237 11.3579 43.4653C11.3579 43.6169 11.32 43.7685 11.32 43.9202C11.32 44.0718 11.301 44.2234 11.2821 44.375C11.2821 44.5077 11.2821 44.6593 11.2631 44.792C11.2631 45.1142 11.2252 45.4174 11.2252 45.7396C11.2252 45.8912 11.2252 46.0429 11.2252 46.1945C11.1873 47.7486 11.2442 49.2648 11.3958 50.7621C11.4527 51.2169 11.5095 51.6718 11.5664 52.1267C13.7459 67.6109 25.6482 80.006 40.8861 82.9436C41.0377 82.9626 41.1893 83.0005 41.3409 83.0194C41.6442 83.0763 41.9474 83.1331 42.2317 83.171C42.3833 83.171 42.535 83.209 42.6866 83.2469C43.1414 83.3037 43.5963 83.3606 44.0512 83.4174C45.5484 83.5691 47.0646 83.6259 48.6188 83.588C48.7704 83.588 48.922 83.588 49.0736 83.588C49.3958 83.588 49.6991 83.569 50.0212 83.5501C50.1539 83.5501 50.3055 83.5501 50.4382 83.5122C50.5898 83.5122 50.7414 83.5122 50.8931 83.4743C51.0447 83.4743 51.1963 83.4553 51.3479 83.4364C68.7275 81.7685 82.5629 67.9331 84.2307 50.5536C84.2307 50.402 84.2686 50.2503 84.2686 50.0987C84.2686 49.9471 84.2876 49.7955 84.3065 49.6439C84.3065 49.5112 84.3065 49.3596 84.3444 49.2079C84.3444 48.9047 84.3824 48.6015 84.3824 48.2793C84.3824 48.1276 84.3824 47.976 84.3824 47.8244C84.4203 46.2892 84.3444 44.7541 84.2118 43.2568M26.3305 22.2763C30.6517 18.5237 35.9774 15.8703 41.8337 14.79C42.2507 14.7142 42.535 15.188 42.2886 15.5102C40.0522 18.5426 37.3419 22.9017 35.2193 28.379C35.1245 28.6254 34.8402 28.7391 34.5938 28.6254C31.5804 27.204 28.7943 25.2897 26.3305 22.9396C26.141 22.7501 26.141 22.4279 26.3305 22.2573V22.2763ZM22.9948 25.6119C23.1654 25.4224 23.4686 25.4035 23.6582 25.593C26.5579 28.3601 29.8746 30.6154 33.4567 32.2454C33.6651 32.3401 33.7789 32.5675 33.703 32.795C32.6606 36.396 31.9215 40.376 31.713 44.6783C31.713 44.9247 31.5045 45.1142 31.2582 45.1142H15.5464C15.2811 45.1142 15.0726 44.8867 15.0916 44.6214C15.6222 37.3815 18.503 30.786 22.9759 25.6119H22.9948ZM22.9948 68.4259C18.522 63.2518 15.6222 56.6563 15.1105 49.4164C15.1105 49.1511 15.3001 48.9237 15.5654 48.9237H31.2771C31.5235 48.9237 31.732 49.1132 31.732 49.3596C31.9215 53.6808 32.6796 57.6419 33.722 61.2429C33.7978 61.4513 33.6841 61.6977 33.4756 61.7925C29.8936 63.4224 26.5769 65.6588 23.6771 68.4449C23.4876 68.6344 23.1843 68.6154 23.0138 68.4259H22.9948ZM41.8148 79.2668C35.9584 78.1865 30.6517 75.5521 26.3115 71.7805C26.103 71.6099 26.103 71.2878 26.3115 71.0982C28.7754 68.7481 31.5614 66.8339 34.5749 65.4124C34.8212 65.2987 35.1055 65.4124 35.2003 65.6778C37.323 71.1551 40.0522 75.5142 42.2696 78.5466C42.516 78.8878 42.2317 79.3426 41.8148 79.2668ZM45.8896 75.6279C45.8896 76.0828 45.321 76.2533 45.0557 75.8932C43.0467 73.1072 40.6397 69.184 38.7444 64.3132C38.6497 64.0668 38.7823 63.7825 39.0477 63.7067C41.1135 63.1002 43.2362 62.6833 45.3968 62.5127C45.6621 62.5127 45.8896 62.7022 45.8896 62.9675V75.6279ZM45.8896 58.2862C45.8896 58.5326 45.7001 58.7222 45.4537 58.7411C42.8572 58.9117 40.2986 59.4045 37.8347 60.1436C37.5883 60.2194 37.323 60.0868 37.2661 59.8214C36.3754 56.6374 35.7499 53.1501 35.5604 49.3975C35.5604 49.1321 35.7499 48.9047 36.0153 48.9047H45.4347C45.6811 48.9047 45.8896 49.1132 45.8896 49.3596V58.2673V58.2862ZM45.8896 44.6593C45.8896 44.9057 45.6811 45.1142 45.4347 45.1142H36.0153C35.7499 45.1142 35.5414 44.8867 35.5604 44.6214C35.7499 40.8498 36.3754 37.3626 37.2661 34.1975C37.3419 33.9511 37.5883 33.8184 37.8347 33.8753C40.3175 34.6334 42.8572 35.1072 45.4537 35.2778C45.7001 35.2778 45.8896 35.4863 45.8896 35.7326V44.6404V44.6593ZM45.8896 31.0892C45.8896 31.3546 45.6621 31.582 45.3968 31.5441C43.2362 31.3735 41.1135 30.9755 39.0477 30.3501C38.7823 30.2743 38.6497 29.99 38.7444 29.7436C40.6397 24.8728 43.0467 20.9496 45.0557 18.1636C45.321 17.8035 45.8896 17.993 45.8896 18.4289V31.0892ZM72.5938 25.6119C77.0856 30.786 79.9664 37.4005 80.4781 44.6214C80.4971 44.8867 80.2886 45.1142 80.0232 45.1142H64.3115C64.0651 45.1142 63.8567 44.9247 63.8567 44.6783C63.6671 40.376 62.928 36.396 61.8666 32.795C61.7908 32.5675 61.9045 32.3401 62.113 32.2454C65.6951 30.6154 69.0118 28.3601 71.9115 25.593C72.1011 25.4035 72.4043 25.4224 72.5749 25.6119H72.5938ZM62.113 61.8114C61.9045 61.7167 61.7908 61.4892 61.8666 61.2618C62.909 57.6608 63.6482 53.6808 63.8567 49.3785C63.8567 49.1321 64.0651 48.9426 64.3115 48.9426H80.0232C80.2886 48.9426 80.516 49.17 80.4781 49.4354C79.9474 56.6753 77.0666 63.2708 72.5938 68.4449C72.4232 68.6533 72.12 68.6533 71.9305 68.4828C69.0307 65.7157 65.714 63.4603 62.132 61.8304L62.113 61.8114ZM69.2582 71.7805C64.937 75.5331 59.6113 78.1865 53.7549 79.2668C53.338 79.3426 53.0537 78.8688 53.3001 78.5466C55.5365 75.5142 58.2656 71.1361 60.3883 65.6399C60.4831 65.3935 60.7674 65.2798 61.0138 65.3935C64.0083 66.8149 66.7943 68.7291 69.2771 71.1172C69.4666 71.3067 69.4666 71.6289 69.2771 71.7995L69.2582 71.7805ZM53.7549 14.79C59.6113 15.8703 64.918 18.5237 69.2582 22.2763C69.4666 22.4468 69.4666 22.769 69.2582 22.9586C66.7754 25.3276 63.9893 27.2608 60.9948 28.6823C60.7484 28.796 60.4641 28.6823 60.3694 28.4169C58.2467 22.9207 55.5175 18.5616 53.2811 15.5291C53.0347 15.188 53.319 14.7331 53.736 14.8089L53.7549 14.79ZM49.6991 18.4289C49.6991 17.974 50.2676 17.8035 50.533 18.1446C52.5609 20.9496 54.9489 24.8728 56.8442 29.7626C56.939 30.0089 56.8063 30.2932 56.5409 30.369C54.4751 30.9755 52.3524 31.3546 50.1729 31.5252C49.9075 31.5252 49.6801 31.3356 49.6801 31.0703V18.4099L49.6991 18.4289ZM49.6991 35.7705C49.6991 35.5242 49.8886 35.3346 50.116 35.3157C52.7125 35.1451 55.2711 34.6523 57.735 33.9132C57.9813 33.8374 58.2467 33.989 58.3035 34.2354C59.1943 37.4194 59.8387 40.8877 60.0093 44.6593C60.0093 44.9247 59.8198 45.1521 59.5544 45.1521H50.135C49.8696 45.1521 49.6801 44.9436 49.6801 44.6972V35.7895L49.6991 35.7705ZM49.6991 49.3975C49.6991 49.1321 49.9075 48.9426 50.1539 48.9426H59.5734C59.8387 48.9426 60.0472 49.17 60.0282 49.4354C59.8387 53.207 59.2133 56.6942 58.3225 59.8593C58.2467 60.1057 58.0003 60.2384 57.7539 60.1815C55.2711 59.4234 52.7315 58.9496 50.135 58.779C49.8886 58.779 49.718 58.5705 49.718 58.3242V49.4164L49.6991 49.3975ZM50.533 75.8932C50.2676 76.2533 49.6991 76.0638 49.6991 75.6279V62.9675C49.6991 62.7022 49.9265 62.4937 50.1918 62.5127C52.3714 62.6833 54.4941 63.0623 56.5599 63.6878C56.8252 63.7636 56.9579 64.0479 56.8631 64.2942C54.9679 69.184 52.5609 73.1262 50.5519 75.9122L50.533 75.8932Z" fill="#1E71D6"/>
<path d="M47.7814 0.0827942C23.4462 0.0827942 3.43223 18.6185 1.06315 42.3282C1.06315 42.3661 1.06315 42.404 1.06315 42.4419C1.02525 42.783 1.00629 43.1431 0.968389 43.5032C0.968389 43.617 0.968388 43.7307 0.949435 43.8444C0.949435 44.1287 0.911531 44.394 0.892578 44.6783C0.892578 44.8489 0.892578 45.0195 0.892578 45.19V48.8289C0.892578 49.0564 0.892578 49.2838 0.930483 49.5112C0.930483 49.5681 0.930483 49.6249 0.930483 49.7008C2.27612 73.4863 21.3235 92.5526 45.109 93.8793C45.1659 93.8793 45.2228 93.8793 45.2986 93.8793C45.5639 93.8793 45.8103 93.8983 46.0756 93.9172C46.2272 93.9172 46.3789 93.9172 46.5305 93.9172C46.739 93.9172 46.9474 93.9172 47.1559 93.9172C47.3265 93.9172 47.4971 93.9172 47.6866 93.9172H47.8003C47.9898 93.9172 48.1794 93.9172 48.3689 93.9172C48.5584 93.9172 48.7669 93.9172 48.9564 93.9172C49.1839 93.9172 49.4113 93.9172 49.6387 93.8983C49.8093 93.8983 49.9799 93.8983 50.1504 93.8983C50.4347 93.8983 50.7001 93.8604 50.9844 93.8414C51.0981 93.8414 51.2118 93.8414 51.3255 93.8225C51.6666 93.8035 52.0267 93.7656 52.3868 93.7277C52.4247 93.7277 52.4627 93.7277 52.5006 93.7277C76.2292 91.3776 94.7649 71.3636 94.7649 47.0095C94.7649 46.6304 94.7649 46.2514 94.7649 45.8913C94.7649 45.7776 94.7649 45.6638 94.7649 45.5501C94.7649 45.2848 94.7649 45.0195 94.727 44.7731C94.727 44.6404 94.727 44.5077 94.727 44.394C94.727 44.1476 94.6891 43.8823 94.6701 43.6359C94.6701 43.5222 94.6701 43.3895 94.6512 43.2758C94.6322 42.9915 94.5943 42.7072 94.5754 42.4229C94.5754 42.3471 94.5754 42.2524 94.5564 42.1766C94.4806 41.4374 94.3858 40.6983 94.2721 39.9591C94.2721 39.8643 94.2342 39.7885 94.2342 39.6938C94.1963 39.4095 94.1395 39.1441 94.1016 38.8599C94.1016 38.7461 94.0637 38.6324 94.0447 38.5377C94.0068 38.2913 93.9499 38.0259 93.8931 37.7796C93.8741 37.6658 93.8552 37.5521 93.8173 37.4384C93.7604 37.1731 93.7036 36.9267 93.6467 36.6614C93.6277 36.5476 93.6088 36.4529 93.5709 36.3581C93.4951 36.0359 93.4193 35.7327 93.3435 35.4105C93.3435 35.3726 93.3435 35.3157 93.3056 35.2778C93.2108 34.9367 93.116 34.5955 93.0213 34.2354C92.9834 34.1217 92.9455 33.989 92.9075 33.8564C92.8317 33.6479 92.7749 33.4205 92.718 33.212C92.6612 33.0604 92.6233 32.9087 92.5664 32.7571C92.5664 32.795 92.5664 32.814 92.5664 32.814L92.5285 32.7003C92.5285 32.7003 92.5285 32.7003 92.5285 32.7571C92.5285 32.7192 92.4527 32.5676 92.4148 32.397C92.339 32.1696 92.4527 31.9232 92.6612 31.8284L96.6223 30.0279C96.9065 29.8953 96.9823 29.5352 96.7739 29.3077L80.3609 9.82444C80.2661 9.71072 80.1335 9.65387 80.0198 9.65387C79.7544 9.65387 79.508 9.8813 79.5649 10.2035L83.924 35.183C83.9619 35.4105 84.1704 35.5621 84.3789 35.5621C84.4357 35.5621 84.5115 35.5621 84.5684 35.5242L87.3544 34.2544C87.3544 34.2544 87.4871 34.2165 87.544 34.2165C87.7335 34.2165 87.923 34.3302 87.9799 34.5387C89.2118 38.5377 89.8562 42.7072 89.8562 46.9337C89.913 69.9611 71.2257 88.8758 48.1983 89.1033H47.7814C24.5834 89.1033 5.70654 70.2264 5.70654 47.0284C5.70654 23.8304 24.5834 4.95362 47.7814 4.95362C53.9031 4.95362 59.7784 6.22344 65.2936 8.76309C65.3504 8.801 65.4262 8.801 65.4831 8.801C65.6537 8.801 65.8243 8.70624 65.9001 8.53566L67.5868 4.95362C67.7006 4.72619 67.5868 4.46085 67.3784 4.34713C67.3405 4.34713 67.3025 4.30923 67.2646 4.29028C67.0183 4.17656 66.7719 4.06284 66.5255 3.96808C66.3928 3.91122 66.2602 3.85437 66.1464 3.79751C65.938 3.70274 65.7295 3.62693 65.521 3.55112C61.3704 1.86434 57.0492 0.784041 52.5953 0.329178C52.5953 0.329178 52.5574 0.329178 52.5385 0.329178C52.1594 0.291273 51.7993 0.253368 51.4203 0.234415C51.3444 0.234415 51.2876 0.234415 51.2118 0.234415C50.8896 0.215462 50.5674 0.19651 50.2262 0.177557C50.0557 0.177557 49.9041 0.177557 49.7335 0.177557C49.4871 0.177557 49.2597 0.158605 49.0133 0.158605C48.5963 0.158605 48.1983 0.158605 47.7814 0.158605V0.0827942Z" fill="black"/>
</svg>
